<?xml version="1.0" encoding="UTF-8"?>
<svg width="100" height="100" viewBox="0 0 100 100" xmlns="http://www.w3.org/2000/svg">
    <!-- Tło koła -->
    <circle cx="50" cy="50" r="48" fill="#4B5563"/>
    
    <!-- Ikona kasku -->
    <path d="M50 25C38.954 25 30 33.954 30 45v5h40v-5c0-11.046-8.954-20-20-20zm-15 25v5c0 8.284 6.716 15 15 15 8.284 0 15-6.716 15-15v-5H35z" fill="white"/>
    <path d="M50 65c-5.523 0-10-4.477-10-10v-5h20v5c0 5.523-4.477 10-10 10z" fill="white"/>
    
    <!-- Tekst "KPPRO" -->
    <text x="50" y="90" font-family="Arial Black, sans-serif" font-size="12" fill="white" text-anchor="middle" font-weight="bold">KPPRO</text>
    
    <!-- Podtytuł -->
    <text x="50" y="98" font-family="Arial, sans-serif" font-size="6" fill="white" text-anchor="middle">oferty pod kontrolą</text>
</svg> 